<?xml version="1.0" encoding="UTF-8"?>
<svg id="Layer_1" xmlns="http://www.w3.org/2000/svg" xmlns:xlink="http://www.w3.org/1999/xlink" version="1.1" viewBox="0 0 595.3 841.9">
  <!-- Generator: Adobe Illustrator 29.4.0, SVG Export Plug-In . SVG Version: 2.1.0 Build 152)  -->
  <defs>
    <style>
      .st0 {
        fill: #d5a0c9;
      }

      .st1 {
        fill: url(#linear-gradient3);
        stroke: url(#linear-gradient4);
        stroke-miterlimit: 10;
      }

      .st2 {
        fill: url(#linear-gradient2);
      }

      .st3 {
        fill: url(#linear-gradient1);
      }

      .st4 {
        fill: #e389a3;
      }

      .st5 {
        fill: #e5b5d4;
      }

      .st6 {
        fill: url(#linear-gradient);
      }

      .st7 {
        fill: #692c90;
      }
    </style>
    <linearGradient id="linear-gradient" x1="216.3" y1="505.2" x2="388.3" y2="405.9" gradientUnits="userSpaceOnUse">
      <stop offset="0" stop-color="#6a2e8f"/>
      <stop offset="1" stop-color="#e5b5d4"/>
    </linearGradient>
    <linearGradient id="linear-gradient1" x1="253.6" y1="455.5" x2="351" y2="455.5" gradientUnits="userSpaceOnUse">
      <stop offset="0" stop-color="#e389a3"/>
      <stop offset=".7" stop-color="#d5a0c9"/>
    </linearGradient>
    <linearGradient id="linear-gradient2" x1="349.3" y1="455.2" x2="440.1" y2="455.2" xlink:href="#linear-gradient"/>
    <linearGradient id="linear-gradient3" x1="320.4" y1="496.1" x2="378.1" y2="496.1" gradientUnits="userSpaceOnUse">
      <stop offset="0" stop-color="#e389a3"/>
      <stop offset=".6" stop-color="#d5a0c9"/>
    </linearGradient>
    <linearGradient id="linear-gradient4" x1="319.9" y1="496.1" x2="378.6" y2="496.1" gradientUnits="userSpaceOnUse">
      <stop offset="0" stop-color="#e389a3"/>
      <stop offset="1" stop-color="#e5b5d4"/>
    </linearGradient>
  </defs>
  <g>
    <g>
      <line class="st7" x1="81.2" y1="338.7" x2="172" y2="573.3"/>
      <path class="st4" d="M71.5,341.3c10.2,26.4,20.5,52.9,30.7,79.3,16.3,42.1,32.6,84.3,48.9,126.4s7.5,19.3,11.2,29,6.7,8.5,12.3,7,8.9-7.2,7-12.3c-10.2-26.4-20.5-52.9-30.7-79.3-16.3-42.1-32.6-84.3-48.9-126.4l-11.2-29c-1.9-5-6.7-8.5-12.3-7s-8.9,7.2-7,12.3h0Z"/>
    </g>
    <g>
      <line class="st7" x1="265.4" y1="338.5" x2="172" y2="573.3"/>
      <path class="st4" d="M255.8,335.9c-10.6,26.5-21.1,53-31.7,79.5-16.7,42.1-33.5,84.1-50.2,126.2-3.9,9.7-7.7,19.4-11.6,29s2.2,11,7,12.3,10.3-1.9,12.3-7c10.6-26.5,21.1-53,31.7-79.5,16.7-42.1,33.5-84.1,50.2-126.2,3.9-9.7,7.7-19.4,11.6-29s-2.2-11-7-12.3-10.3,1.9-12.3,7h0Z"/>
    </g>
    <g>
      <line class="st7" x1="164.6" y1="338.6" x2="255.4" y2="573.2"/>
      <path class="st4" d="M154.9,341.2c10.2,26.4,20.5,52.9,30.7,79.3,16.3,42.1,32.6,84.3,48.9,126.4s7.5,19.3,11.2,29,6.7,8.5,12.3,7,8.9-7.2,7-12.3c-10.2-26.4-20.5-52.9-30.7-79.3-16.3-42.1-32.6-84.3-48.9-126.4-3.7-9.7-7.5-19.3-11.2-29s-6.7-8.5-12.3-7-8.9,7.2-7,12.3h0Z"/>
    </g>
  </g>
  <g>
    <g>
      <line class="st6" x1="349.1" y1="338" x2="255.5" y2="573.1"/>
      <path class="st3" d="M339.4,335.3c-10.6,26.6-21.1,53.1-31.7,79.7-16.8,42.1-33.5,84.3-50.3,126.4-3.9,9.7-7.7,19.4-11.6,29.1s2.2,11,7,12.3,10.3-1.9,12.3-7c10.6-26.6,21.1-53.1,31.7-79.7,16.8-42.1,33.5-84.3,50.3-126.4,3.9-9.7,7.7-19.4,11.6-29.1s-2.2-11-7-12.3-10.3,1.9-12.3,7h0Z"/>
    </g>
    <g>
      <line class="st2" x1="440.1" y1="572.6" x2="349.3" y2="337.9"/>
      <path class="st0" d="M449.7,569.9c-10.2-26.4-20.5-52.9-30.7-79.3-16.3-42.1-32.6-84.3-48.9-126.4-3.7-9.7-7.5-19.3-11.2-29s-6.7-8.5-12.3-7-8.9,7.2-7,12.3l30.7,79.3c16.3,42.1,32.6,84.3,48.9,126.4,3.7,9.7,7.5,19.3,11.2,29s6.7,8.5,12.3,7,8.9-7.2,7-12.3h0Z"/>
    </g>
  </g>
  <g>
    <line class="st5" x1="470.9" y1="573.1" x2="470.9" y2="338.8"/>
    <path class="st0" d="M480.9,573.1v-234.3c0-12.9-20-12.9-20,0v234.3c0,12.9,20,12.9,20,0h0Z"/>
  </g>
  <path class="st0" d="M466.2,266.6c26.7-6,39.5,33,14.8,44.1-24.9,11.2-45.1-17.7-27.8-37.4,1.3-1.4,4.8-2.9,5.3-4.3s-7.9-5.8-9.1-7.2c-1-1.7-.2-6.3,1-7.7s11.2-4.8,12.5-4.8,4.1,2,4.8,2.8c3.3,3.6-2.3,9.6-1.5,14.4ZM492.1,289.7c0-11.9-9.7-21.6-21.6-21.6s-21.6,9.7-21.6,21.6,9.7,21.6,21.6,21.6,21.6-9.7,21.6-21.6Z"/>
  <path class="st1" d="M356.5,488.9c5.1-4.9,11-8.1,18.4-8.4,3.8,9.9,5.8,23.3-3,31.2-6.5-1-13.3-4.2-17.4-9.4-1.6,1.4-5.8,1.2-8,1s-1.6-.3-2.6-1.1c-2,3.4-6.4,5.9-10,7.4s-6.1,2.5-7.8,1.6-2.5-3.1-3-3.9c-4.6-8.2-2.5-18.4.4-26.8,7.7.2,15.4,4.3,20.1,10.3,1.3-1.9,8.4-1.8,10-1s.7.7,1.1,1c.5-.7,1.1-1.2,1.8-1.8Z"/>
</svg>