<?xml version="1.0" encoding="UTF-8"?>
<svg id="Layer_1" xmlns="http://www.w3.org/2000/svg" xmlns:xlink="http://www.w3.org/1999/xlink" version="1.1" viewBox="0 0 595.3 841.9">
  <!-- Generator: Adobe Illustrator 29.5.0, SVG Export Plug-In . SVG Version: 2.1.0 Build 137)  -->
  <defs>
    <style>
      .st0 {
        fill: none;
      }

      .st1 {
        fill: url(#linear-gradient1);
        stroke: url(#linear-gradient2);
        stroke-miterlimit: 10;
      }

      .st2 {
        fill: #e389a3;
      }

      .st3 {
        fill: url(#linear-gradient);
      }

      .st4 {
        fill: #d5a0c9;
      }
    </style>
    <linearGradient id="linear-gradient" x1="268" y1="380.6" x2="357.9" y2="380.6" gradientTransform="translate(0 842.8) scale(1 -1)" gradientUnits="userSpaceOnUse">
      <stop offset="0" stop-color="#e389a3"/>
      <stop offset=".7" stop-color="#d5a0c9"/>
    </linearGradient>
    <linearGradient id="linear-gradient1" x1="329.6" y1="343.2" x2="382.9" y2="343.2" gradientTransform="translate(0 842.8) scale(1 -1)" gradientUnits="userSpaceOnUse">
      <stop offset="0" stop-color="#e389a3"/>
      <stop offset=".6" stop-color="#d5a0c9"/>
    </linearGradient>
    <linearGradient id="linear-gradient2" x1="329.1" y1="343.2" x2="383.4" y2="343.2" gradientTransform="translate(0 842.8) scale(1 -1)" gradientUnits="userSpaceOnUse">
      <stop offset="0" stop-color="#e389a3"/>
      <stop offset="1" stop-color="#e5b5d4"/>
    </linearGradient>
  </defs>
  <g>
    <g>
      <line class="st0" x1="109" y1="354.4" x2="192.7" y2="570.8"/>
      <path class="st2" d="M100,356.8c9.4,24.4,18.9,48.8,28.3,73.1,15,38.8,30.1,77.8,45.1,116.6,15,38.8,6.9,17.8,10.3,26.8,3.4,8.9,6.2,7.8,11.3,6.5,5.2-1.4,8.2-6.6,6.5-11.3-9.4-24.4-18.9-48.8-28.3-73.1-15-38.8-30.1-77.8-45.1-116.6l-10.3-26.8c-1.8-4.6-6.2-7.8-11.3-6.5-5.2,1.4-8.2,6.6-6.5,11.3h0Z"/>
    </g>
    <g>
      <line class="st0" x1="278.9" y1="354.2" x2="192.7" y2="570.8"/>
      <path class="st2" d="M270,351.8c-9.8,24.4-19.5,48.9-29.2,73.3-15.4,38.8-30.9,77.6-46.3,116.4-3.6,8.9-7.1,17.9-10.7,26.8-3.6,8.9,2,10.1,6.5,11.3,4.4,1.2,9.5-1.8,11.3-6.5,9.8-24.4,19.5-48.9,29.2-73.3,15.4-38.8,30.9-77.6,46.3-116.4,3.6-8.9,7.1-17.9,10.7-26.8,3.6-8.9-2-10.1-6.5-11.3s-9.5,1.8-11.3,6.5h0Z"/>
    </g>
    <g>
      <line class="st0" x1="185.9" y1="354.3" x2="269.7" y2="570.7"/>
      <path class="st2" d="M177,356.7c9.4,24.4,18.9,48.8,28.3,73.1,15,38.8,30.1,77.8,45.1,116.6,15,38.8,6.9,17.8,10.3,26.8s6.2,7.8,11.3,6.5c5.2-1.4,8.2-6.6,6.5-11.3-9.4-24.4-18.9-48.8-28.3-73.1-15-38.8-30.1-77.8-45.1-116.6-3.4-8.9-6.9-17.8-10.3-26.8-3.4-8.9-6.2-7.8-11.3-6.5s-8.2,6.6-6.5,11.3h0Z"/>
    </g>
  </g>
  <g>
    <g>
      <line class="st0" x1="356.1" y1="353.7" x2="269.8" y2="570.6"/>
      <path class="st3" d="M347.2,351.2c-9.8,24.5-19.5,49-29.2,73.5-15.5,38.8-30.9,77.8-46.4,116.6-3.6,8.9-7.1,17.9-10.7,26.8s2,10.1,6.5,11.3c4.4,1.2,9.5-1.8,11.3-6.5,9.8-24.5,19.5-49,29.2-73.5,15.5-38.8,30.9-77.8,46.4-116.6,3.6-8.9,7.1-17.9,10.7-26.8s-2-10.1-6.5-11.3-9.5,1.8-11.3,6.5h0Z"/>
    </g>
    <g>
      <line class="st0" x1="440" y1="570.1" x2="356.3" y2="353.6"/>
      <path class="st4" d="M448.9,567.6c-9.4-24.4-18.9-48.8-28.3-73.1-15-38.8-30.1-77.8-45.1-116.6-3.4-8.9-6.9-17.8-10.3-26.8s-6.2-7.8-11.3-6.5-8.2,6.6-6.5,11.3l28.3,73.1c15,38.8,30.1,77.8,45.1,116.6,3.4,8.9,6.9,17.8,10.3,26.8s6.2,7.8,11.3,6.5,8.2-6.6,6.5-11.3h0Z"/>
    </g>
  </g>
  <g>
    <line class="st0" x1="468.5" y1="570.6" x2="468.5" y2="354.5"/>
    <path class="st4" d="M477.7,570.6v-216.1c0-11.9-18.4-11.9-18.4,0v216.1c0,11.9,18.4,11.9,18.4,0h0Z"/>
  </g>
  <path class="st4" d="M464.1,287.9c24.6-5.5,36.4,30.4,13.7,40.7-23,10.3-41.6-16.3-25.6-34.5,1.2-1.3,4.4-2.7,4.9-4s-7.3-5.4-8.4-6.6c-.9-1.6-.2-5.8.9-7.1s10.3-4.4,11.5-4.4,3.8,1.8,4.4,2.6c3,3.3-2.1,8.9-1.4,13.3h0ZM488,309.2c0-11-8.9-19.9-19.9-19.9s-19.9,8.9-19.9,19.9,8.9,19.9,19.9,19.9,19.9-8.9,19.9-19.9Z"/>
  <path class="st1" d="M362.9,492.9c4.7-4.5,10.1-7.5,17-7.7,3.5,9.1,5.4,21.5-2.8,28.8-6-.9-12.3-3.9-16.1-8.7-1.5,1.3-5.4,1.1-7.4.9s-1.5-.3-2.4-1c-1.8,3.1-5.9,5.4-9.2,6.8s-5.6,2.3-7.2,1.5-2.3-2.9-2.8-3.6c-4.2-7.6-2.3-17,.4-24.7,7.1.2,14.2,4,18.5,9.5,1.2-1.8,7.7-1.7,9.2-.9s.6.6,1,.9c.5-.6,1-1.1,1.7-1.7h0Z"/>
</svg>