<?xml version="1.0" encoding="UTF-8"?>
<svg id="Layer_1" xmlns="http://www.w3.org/2000/svg" xmlns:xlink="http://www.w3.org/1999/xlink" version="1.1" viewBox="0 0 595.3 841.9">
  <!-- Generator: Adobe Illustrator 29.5.0, SVG Export Plug-In . SVG Version: 2.1.0 Build 137)  -->
  <defs>
    <style>
      .st0 {
        fill: none;
      }

      .st1 {
        fill: url(#linear-gradient1);
        stroke: url(#linear-gradient2);
        stroke-miterlimit: 10;
      }

      .st2 {
        fill: #e389a3;
      }

      .st3 {
        fill: url(#linear-gradient);
      }

      .st4 {
        fill: #d5a0c9;
      }
    </style>
    <linearGradient id="linear-gradient" x1="292.4" y1="414.8" x2="310" y2="414.8" gradientTransform="translate(0 842.8) scale(1 -1)" gradientUnits="userSpaceOnUse">
      <stop offset="0" stop-color="#e389a3"/>
      <stop offset=".7" stop-color="#d5a0c9"/>
    </linearGradient>
    <linearGradient id="linear-gradient1" x1="304.5" y1="407.5" x2="314.9" y2="407.5" gradientTransform="translate(0 842.8) scale(1 -1)" gradientUnits="userSpaceOnUse">
      <stop offset="0" stop-color="#e389a3"/>
      <stop offset=".6" stop-color="#d5a0c9"/>
    </linearGradient>
    <linearGradient id="linear-gradient2" x1="304" y1="407.5" x2="315.4" y2="407.5" gradientTransform="translate(0 842.8) scale(1 -1)" gradientUnits="userSpaceOnUse">
      <stop offset="0" stop-color="#e389a3"/>
      <stop offset="1" stop-color="#e5b5d4"/>
    </linearGradient>
  </defs>
  <g>
    <g>
      <line class="st0" x1="261.4" y1="406.9" x2="277.7" y2="449.2"/>
      <path class="st2" d="M259.6,407.4c1.8,4.8,3.7,9.5,5.5,14.3,2.9,7.6,5.9,15.2,8.8,22.8s1.4,3.5,2,5.2,1.2,1.5,2.2,1.3,1.6-1.3,1.3-2.2c-1.8-4.8-3.7-9.5-5.5-14.3-2.9-7.6-5.9-15.2-8.8-22.8l-2-5.2c-.3-.9-1.2-1.5-2.2-1.3s-1.6,1.3-1.3,2.2h0Z"/>
    </g>
    <g>
      <line class="st0" x1="294.6" y1="406.9" x2="277.7" y2="449.2"/>
      <path class="st2" d="M292.8,406.4c-1.9,4.8-3.8,9.6-5.7,14.3-3,7.6-6,15.2-9,22.7-.7,1.7-1.4,3.5-2.1,5.2s.4,2,1.3,2.2,1.9-.3,2.2-1.3c1.9-4.8,3.8-9.6,5.7-14.3,3-7.6,6-15.2,9-22.7.7-1.7,1.4-3.5,2.1-5.2s-.4-2-1.3-2.2-1.9.3-2.2,1.3h0Z"/>
    </g>
    <g>
      <line class="st0" x1="276.4" y1="406.9" x2="292.8" y2="449.2"/>
      <path class="st2" d="M274.6,407.4c1.8,4.8,3.7,9.5,5.5,14.3,2.9,7.6,5.9,15.2,8.8,22.8s1.4,3.5,2,5.2,1.2,1.5,2.2,1.3,1.6-1.3,1.3-2.2c-1.8-4.8-3.7-9.5-5.5-14.3-2.9-7.6-5.9-15.2-8.8-22.8-.7-1.7-1.4-3.5-2-5.2s-1.2-1.5-2.2-1.3-1.6,1.3-1.3,2.2h0Z"/>
    </g>
  </g>
  <g>
    <g>
      <line class="st0" x1="309.6" y1="406.8" x2="292.8" y2="449.1"/>
      <path class="st3" d="M307.9,406.3c-1.9,4.8-3.8,9.6-5.7,14.4-3,7.6-6,15.2-9.1,22.8-.7,1.7-1.4,3.5-2.1,5.2s.4,2,1.3,2.2c.9.2,1.9-.3,2.2-1.3,1.9-4.8,3.8-9.6,5.7-14.4,3-7.6,6-15.2,9.1-22.8.7-1.7,1.4-3.5,2.1-5.2s-.4-2-1.3-2.2-1.9.3-2.2,1.3h0Z"/>
    </g>
    <g>
      <line class="st0" x1="326" y1="449.1" x2="309.7" y2="406.8"/>
      <path class="st4" d="M327.8,448.6c-1.8-4.8-3.7-9.5-5.5-14.3-2.9-7.6-5.9-15.2-8.8-22.8-.7-1.7-1.4-3.5-2-5.2s-1.2-1.5-2.2-1.3-1.6,1.3-1.3,2.2l5.5,14.3c2.9,7.6,5.9,15.2,8.8,22.8.7,1.7,1.4,3.5,2,5.2s1.2,1.5,2.2,1.3,1.6-1.3,1.3-2.2h0Z"/>
    </g>
  </g>
  <g>
    <line class="st0" x1="331.6" y1="449.1" x2="331.6" y2="406.9"/>
    <path class="st4" d="M333.4,449.1v-42.2c0-2.3-3.6-2.3-3.6,0v42.2c0,2.3,3.6,2.3,3.6,0h0Z"/>
  </g>
  <path class="st4" d="M330.7,393.9c4.8-1.1,7.1,5.9,2.7,7.9-4.5,2-8.1-3.2-5-6.7.2-.3.9-.5,1-.8s-1.4-1-1.6-1.3c-.2-.3,0-1.1.2-1.4s2-.9,2.3-.9.7.4.9.5c.6.6-.4,1.7-.3,2.6h0ZM335.4,398.1c0-2.1-1.7-3.9-3.9-3.9s-3.9,1.7-3.9,3.9,1.7,3.9,3.9,3.9,3.9-1.7,3.9-3.9Z"/>
  <path class="st1" d="M311,434c.9-.9,2-1.5,3.3-1.5.7,1.8,1,4.2-.5,5.6-1.2-.2-2.4-.8-3.1-1.7-.3.3-1,.2-1.4.2s-.3,0-.5-.2c-.4.6-1.2,1.1-1.8,1.3s-1.1.5-1.4.3-.5-.6-.5-.7c-.8-1.5-.5-3.3,0-4.8,1.4,0,2.8.8,3.6,1.9.2-.3,1.5-.3,1.8-.2s.1.1.2.2c0-.1.2-.2.3-.3h0Z"/>
</svg>