<?xml version="1.0" encoding="UTF-8"?>
<svg id="Layer_1" data-name="Layer 1" xmlns="http://www.w3.org/2000/svg" xmlns:xlink="http://www.w3.org/1999/xlink" viewBox="0 0 576.55 455.85">
  <defs>
    <style>
      .cls-1 {
        fill: none;
      }

      .cls-2 {
        fill: url(#linear-gradient-2);
        stroke: url(#linear-gradient-3);
        stroke-miterlimit: 10;
      }

      .cls-3 {
        fill: #e389a3;
      }

      .cls-4 {
        fill: url(#linear-gradient);
      }

      .cls-5 {
        fill: #d5a0c9;
      }
    </style>
    <linearGradient id="linear-gradient" x1="248.81" y1="1138.65" x2="381.57" y2="1138.65" gradientTransform="translate(0 -857.99)" gradientUnits="userSpaceOnUse">
      <stop offset="0" stop-color="#e389a3"/>
      <stop offset=".7" stop-color="#d5a0c9"/>
    </linearGradient>
    <linearGradient id="linear-gradient-2" x1="339.78" y1="1194.11" x2="418.57" y2="1194.11" gradientTransform="translate(0 -857.99)" gradientUnits="userSpaceOnUse">
      <stop offset="0" stop-color="#e389a3"/>
      <stop offset=".6" stop-color="#d5a0c9"/>
    </linearGradient>
    <linearGradient id="linear-gradient-3" x1="339.28" y1="1194.12" x2="419.07" y2="1194.12" gradientTransform="translate(0 -857.99)" gradientUnits="userSpaceOnUse">
      <stop offset="0" stop-color="#e389a3"/>
      <stop offset="1" stop-color="#e5b5d4"/>
    </linearGradient>
  </defs>
  <g>
    <g>
      <line class="cls-1" x1="14" y1="121.69" x2="137.6" y2="441.27"/>
      <path class="cls-3" d="M.7,125.23c13.88,36.03,27.91,72.07,41.79,107.95,22.15,57.3,44.45,114.9,66.6,172.19,22.15,57.3,10.19,26.29,15.21,39.58,5.02,13.14,9.16,11.52,16.69,9.6,7.68-2.07,12.11-9.75,9.6-16.69-13.88-36.03-27.91-72.07-41.79-107.95-22.15-57.3-44.45-114.9-66.6-172.19l-15.21-39.58c-2.66-6.79-9.16-11.52-16.69-9.6-7.68,2.07-12.11,9.75-9.6,16.69h0Z"/>
    </g>
    <g>
      <line class="cls-1" x1="264.9" y1="121.39" x2="137.6" y2="441.27"/>
      <path class="cls-3" d="M251.76,117.85c-14.47,36.03-28.8,72.22-43.12,108.25-22.74,57.3-45.63,114.6-68.38,171.9-5.32,13.14-10.49,26.43-15.8,39.58-5.32,13.14,2.95,14.92,9.6,16.69,6.5,1.77,14.03-2.66,16.69-9.6,14.47-36.03,28.8-72.22,43.12-108.25,22.74-57.3,45.63-114.6,68.38-171.9,5.32-13.14,10.49-26.43,15.8-39.58,5.32-13.14-2.95-14.92-9.6-16.69s-14.03,2.66-16.69,9.6h0Z"/>
    </g>
    <g>
      <line class="cls-1" x1="127.56" y1="121.54" x2="251.32" y2="441.12"/>
      <path class="cls-3" d="M114.42,125.08c13.88,36.03,27.91,72.07,41.79,107.95,22.15,57.3,44.45,114.9,66.6,172.19,22.15,57.3,10.19,26.29,15.21,39.58,5.02,13.29,9.16,11.52,16.69,9.6,7.68-2.07,12.11-9.75,9.6-16.69-13.88-36.03-27.91-72.07-41.79-107.95-22.15-57.3-44.45-114.9-66.6-172.19-5.02-13.14-10.19-26.29-15.21-39.58-5.02-13.14-9.16-11.52-16.69-9.6s-12.11,9.75-9.6,16.69h0Z"/>
    </g>
  </g>
  <g>
    <g>
      <line class="cls-1" x1="378.91" y1="120.65" x2="251.47" y2="440.97"/>
      <path class="cls-4" d="M365.77,116.96c-14.47,36.18-28.8,72.36-43.12,108.54-22.89,57.3-45.63,114.89-68.52,172.19-5.32,13.14-10.49,26.43-15.8,39.58-5.32,13.14,2.95,14.92,9.6,16.69,6.5,1.77,14.03-2.66,16.69-9.6,14.47-36.18,28.8-72.36,43.12-108.54,22.89-57.3,45.63-114.89,68.52-172.19,5.32-13.14,10.49-26.43,15.8-39.58s-2.95-14.92-9.6-16.69-14.03,2.66-16.69,9.6h0Z"/>
    </g>
    <g>
      <line class="cls-1" x1="502.82" y1="440.23" x2="379.21" y2="120.51"/>
      <path class="cls-5" d="M515.96,436.54c-13.88-36.03-27.91-72.07-41.79-107.95-22.15-57.3-44.45-114.9-66.6-172.19-5.02-13.14-10.19-26.29-15.21-39.58s-9.16-11.52-16.69-9.6-12.11,9.75-9.6,16.69l41.79,107.95c22.15,57.3,44.45,114.9,66.6,172.19,5.02,13.14,10.19,26.29,15.21,39.58,5.02,13.29,9.16,11.52,16.69,9.6s12.11-9.75,9.6-16.69h0Z"/>
    </g>
  </g>
  <path class="cls-5" d="M558.49,440.97V121.84c0-17.57-27.17-17.57-27.17,0v319.14c0,17.57,27.17,17.57,27.17,0h0Z"/>
  <path class="cls-5" d="M538.41,23.48c36.33-8.12,53.76,44.89,20.23,60.11-33.97,15.21-61.43-24.07-37.81-50.95,1.77-1.92,6.5-3.99,7.24-5.91s-10.78-7.97-12.41-9.75c-1.33-2.36-.3-8.57,1.33-10.49s15.21-6.5,16.98-6.5,5.61,2.66,6.5,3.84c4.43,4.87-3.1,13.14-2.07,19.64h0ZM573.7,54.94c0-16.24-13.14-29.39-29.39-29.39s-29.39,13.14-29.39,29.39,13.14,29.39,29.39,29.39,29.39-13.14,29.39-29.39Z"/>
  <path class="cls-2" d="M388.96,326.23c6.94-6.65,14.92-11.08,25.11-11.37,5.17,13.44,7.97,31.75-4.14,42.53-8.86-1.33-18.16-5.76-23.78-12.85-2.22,1.92-7.97,1.62-10.93,1.33s-2.22-.44-3.54-1.48c-2.66,4.58-8.71,7.97-13.59,10.04s-8.27,3.4-10.63,2.22-3.4-4.28-4.14-5.32c-6.2-11.22-3.4-25.11.59-36.48,10.49.3,20.97,5.91,27.32,14.03,1.77-2.66,11.37-2.51,13.59-1.33s.89.89,1.48,1.33c.74-.89,1.48-1.62,2.51-2.51h0l.15-.15Z"/>
</svg>