<?xml version="1.0" encoding="UTF-8"?>
<svg id="Layer_1" xmlns="http://www.w3.org/2000/svg" version="1.1" viewBox="0 0 541 396">
  <!-- Generator: Adobe Illustrator 29.4.0, SVG Export Plug-In . SVG Version: 2.1.0 Build 152)  -->
  <g id="nzJPhs">
    <g>
      <path d="M.8,386.5c1-6.8,8.7-15.9,13.5-20.5l-1.9-1.4c16.7-41.2,31.1-83.5,41.2-126.8,5.4-23.3,6.9-41.9,7.8-65.7.3-7.8.1-15.8.9-23.5l-.7-.7c-3.1.4-11.3-.4-13.2,1.7s.2,2.5.3,4c.3,3.7-3.8,3.9-5.8,5.6s-1.1,1.8-2.4,2.6c-5,3.4-9.9,3.8-15.8,2.4s-5.1-4.5-7.7-7.8-9.7-10.9-12.1-15.4-1.4-4.5,0-7l40.9-37.4,24.2-.2,1.9-5.5,4-.4,1.8-9.4c-5-3.8-7.9-9.2-9.9-15s-1.2-6-2-7.9-1.7-.5-2.5-1.6c-1.7-2.3-1.9-7.1-.9-9.7l3,.5c-.3-3,.5-6.8-.1-9.6s-4.4-6.1-4.4-11.6,12.5-15.5,19.3-15l42.2,6.7c-1.9,6.1-4.1,12.3-7.3,18s-2.5,2.7-3,4c-1.3,3.2-1.9,8.3-3.1,11.9-3.4,10.4-8.2,21.2-17.1,27.9v10.2c4-.8,3.6,2.7,6.3,4.4l17.6,1.1c-.2-.5-.4-.9-.3-1.5.7-2.7,3.9-7,5-10,3.2-8.7-.7-17.7,2.9-27.1s3.3-5.8,3.8-8.7c1-6.6-.5-9.9,2.5-17,9.2-21.6,43.2-19.5,51.7,1s-.2,1.5,0,1.7,1.1.2,1.3.9-.2,2.1.3,3.2,3.9,4.3,4.9,5.6c6.9,9.8,5.9,16.9,9.5,27s6.3,6.9,9.6,10.9,6.5,11.1,8.7,17.3c-.7.9-.8.9-1.4,0-1.1-1.8-1.7-4.8-2.6-6.9-2-4.2-4.3-8.3-7.6-11.6s-3.9-2.8-5.1-4.2c-4-4.4-4.2-12.1-5.8-17.7s-5.2-13.8-10.5-18.3l-2.3,15.7c2,4.5,3.3,11.1,6.8,14.6s3.4,2.4,4.8,3.7c9.1,8.6,16.5,17.3,20.7,29.3l22.3-5.8,5.9,1,33.4-6c2.2-5.9,6.2-12,10.8-16.3s9-7.6,7.4-1.6-6.9,9.8-6.4,10.4c2.4-.8,3.3-3.8,5.9-2.2s.8,2.2-.1,3.2l-14.6,10.4-28.7,8.1c-.3,1.3,1.2,1.5,1.8,2.2,5.3,6,10.8,14.1,11.1,22.3-4.6,1.7-39.7,5.9-40.4,7.9s-.6,4.9-.6,5.5c0,13.8,1.9,27,6.5,40,2.1,5.9,5.4,11.8,7.4,17.6,4.5,13.4-4.2,26.9-1.3,40.8s2.6,6,3.5,9c3.7,11.8,2.8,24,1,36,5.2,18.9,10,38,13.6,57.4l-47.8-12c.2,3.9,0,8.4.5,12.2.7,6.1,4.2,9.9,6,15.5s3.2,11.1.7,15.3l-15.6-21.4c-1.3-3.1,1.4-5.6,1.4-7.9,0-4.3-2.2-9.8-2.1-14.3-7.2.3-14.6,2-21.2,5.1-5.9,2.8-11.6,8.6-17.8,10.2s-11.3-.2-17-1c-.8.4-4.6,8.7-5,10-.6,2.1-.1,4.6-.9,6.1s-8.3,7.5-10.1,8.9-9.2,7.1-9.9,6.3c.4-4.8,2.1-9.9,4.8-14s5.7-5.4,7.1-7.9,4.2-10.7,4.1-11.4-.3-.8-.9-1.2c-1.1-.7-12.3-4.4-13.6-4.5-1.9-.1-9,1.9-9.5,3.7l-1.8,19.2-7.3.5c4,8.7,13.7,17.9,10.5,28.3-.4,1.3-2.2,4.5-3.7,4.3s-3.2-5.2-3.9-6.2c-4.7-6.6-10.5-13.6-17.8-17.4l-1.1-8.9c-1.3-.3-4.9.7-5.4-.8l3-38.4c-3.8-6.4-3.6-12.5-4.7-19.4s-.2-1.5-.9-1.4l-29.1,62.7c0,1.6-2.6,3-2.8,3.7-.5,1.3.4,3.3-.3,4.7s-16.1,9.1-18.7,10.8c-5.4,3.5-13.3,10.8-18.3,13.2s-1,.6-1.8.5c.3-2.9-.4-6.5,0-9.2ZM176.3,27.7c1.9-1.6-7-2.8-7.7-3-8.3-2.5-9.1-4.2-18.5-1.4s-16.1,8.2-19.8,12.2-1.4,3.1-1.5,4.8c6.6-7.8,20.9-19.2,31.6-17.4,2.4.4,5.7,2.7,8.5,3.5s6.9,1.8,7.4,1.4ZM110.3,39.7c-11.9,2.7-17-8-29.6-5.9s-7.3,6.1-9.3,10.2-.7,5.1-5.1,5.2c-.3.3.4,2.1-1.3,1.4s-.5-2.4-1.7-2.5c-.2,2.7,0,5,1,7.5l1-1.5c1.6-1,1.9,4.9,2.2,6,3.1,11.7,9.4,26.5,24.2,17.7,10-6,16.7-27.1,18.6-38.2ZM173.3,43.7c-.7,0-1.2.5-2,.3-2.2-.8-5.3-2.8-7.7-3.8-3.7-1.6-11.9-5.5-15.5-4.8-6.3,1.3-12.2,16.8-13.3,22.7,3.2,12.9,8.9,24.2,21,30.9s6.6,2.5,10.2-2.3,9.4-18.6,9.3-25.7l-2-17.2ZM120.3,88.2c6.1-7.9,12.2-17.8,10.4-28.2s-2.3-6.4-2.5-9.8c-1.2,1.4-2.4,3.9-3.1,5.7-3.7,9.4-1.2,13.1-1.9,22.1s-1.9,6.6-3,10.3ZM281.8,89.7c-.2-.9.3-1.4.7-2.1,2.1-4.1,5.6-8.1,7.9-12.1s1.3-1.8.7-2.3c-7.2,4.9-12.8,12.1-15.7,20.3l-34,6c2.7,1.4,4.4,4.1,7.6,3.6,8.5-1.2,19.2-6.5,27.9-8.1,1.6-.7,13.3-9.1,14.3-10.2s.5-1,0-1l-9.2,6ZM90.3,80.7c-3.7.9-7.7,1.9-11.5.5.4,3.5-3,8.4-.2,11s5.6,4,6,4c.9,0,5.7-5.8,5.7-6.3v-9.2ZM94.2,91.3c-3.4-2-6.7,4.5-8.4,6.7l4.3,24.2,6.5-26.4c0-.6-2.1-4.3-2.4-4.4ZM163.2,91.8l-3.7.9c-.3,6.6-2.6,13-7.5,17.5l-4.5,3.5c12.1,7.9,26.5,2.8,38.8-2,.2-1.3-.1-.8-.7-1-2.2-1-4.5-1.5-6.8-2.7-6.6-3.4-12.3-9.6-15.6-16.2ZM88.3,122.2l-3.9-23.9c-2.2-1.9-8.7-8-11.7-5.9l-1.2,4.8,8.7,10.4,8.1,14.7ZM127.3,118.7c-9-2.7-10.6-11.4-10-19.8s.7-2.4.9-3.6.5-1.3-.4-1.1c0,.7-.4,1.4-.8,2-5.3,7.3-18,21.9-20.1,29.9s-1.6,6.7.4,6.4c10.3-3.8,21-7.6,30-13.8ZM114.3,96.7l-16.2-1-7.7,30.4.9,7.6,4-.5c-.4-4.8.1-7.8,2.2-12,4.4-8.8,12-16,16.8-24.5ZM89.8,134.2c.4-.4-.4-5.6-.6-6.6-.9-3.6-8.2-16.5-10.5-20s-6.9-8.8-8-9.5-.8-.4-1.5-.5c-2.3-.3-21.5-.2-22.8.3L5.5,135.7c-1.2,3.3,1.3,5.5,3.1,8,3.6,5.1,8.2,9.6,11.7,14.8l1.2.7,8.2-7.2-4.9-7.9-7-7.4c3.3-.2,5.5,3,6.7,5.5,3.8-3.9,8-7.3,12.3-10.7s10.9-8.9,15.4-11.6,3.1-.6,1.4.9c-9.7,6.5-18.8,13.8-27.7,21.4-.8,1.3,4.3,8.6,5.4,8.4.7-.4,1.4-1,2.2-1.4,4.5-1.9,11.4-5.8,15.7-6.8s8.3-.7,12-1.2l-5.8-26,.5-2,6.8,27.4,19.9-1.9v-3.2s7-1.3,7-1.3ZM260.3,127.7c-1.2-9.7-8-18.9-15.8-24.4s-7.1-4.8-10.3-4.5c-5,.6-14.2,3.6-19.5,5-8.3,2.3-16.5,5.2-24.9,7.4,5.1,8.4,9.9,17.3,9,27.5l61.5-11ZM197.8,138.7c.3-10.1-4.1-18.6-9.2-26.9-11,5.2-22.6,9.5-34.9,6.3s-5.1-2.2-7.9-3.4c-3,10.6-4,21.1-1.5,32,15-12.5,35.3-12.2,53.5-8ZM144.8,114.7c-17.6,3.7-31.6,15.2-49.2,19.6s-11.7,1.8-11.8,2.7l14.2,43.7,45-33c-1.8-10.9-2.2-22.5,1.8-33ZM219.8,136.2l-20.9,4c-1.3,14.1-3.3,28.6-1.5,42.7s6.4,15.1,10.8,23.2c12.8,24,19.5,48.3,28.2,73.8s.3,1.8,1,1.7c1.1-10.1,1.7-19.5-.9-29.4s-2.5-6-3.5-9c-5-14,4.9-29.8.8-42.8-2.1-6.5-6.1-13.4-8.4-20.1-4.9-14.3-6.1-29.2-5.5-44.3ZM196.7,189.7c.5-.8-1.3-11.2-1.4-13.2-.5-8.2.4-17.7,1-26s1.8-9.5.5-10.5-6.9-1.4-8.3-1.7c-15.5-2.3-30.9-.6-43.5,9.4v1c6.8,15,16,31.4,13.8,48.5,12.9,2,25.8-3.9,37.9-7.5ZM83.3,139.8l-34.5,4.2c-9.2,4.1-18.8,7.9-25.5,15.8,2.4-.2,5.1-1.4,7.3-2.4s11.2-6,11.7-5.6c-.4,3.6-5.9,5.3-4.3,9.5,6.4-2.7,6.1-13.7,13.5-14.5s6.9-.3,10-.5c7.7-.5,15.5-.3,23.2-1l-1.5-5.5ZM57.3,227.7h18.2c.5,0,2.6-1.2,2.7-1.8-6.6-12.1,6-20.2,12.8-28.2s3.4-3.9,3.8-4.7c1.1-2.5.5-6,1.5-8.5l-1.7.2-9.6-38-21.7,1c-.6,20.5-1.2,40.8-2.5,61.2l-3.5,18.8ZM100.2,328.7c17.4-43.4,43.1-83.7,55.7-129,.4-1.4,1.5-3,1.7-4.3,1.2-6.2-.9-14.1-2.8-20s-10-25.8-11.4-26.1l-39.5,29c-2.3,14.8-18.9,23.9-24.8,35.2-6.1,11.8,11,23.5,12.5,34.7s-9.2,19.1-13.5,27.8c-6.2,12.7-7.4,39.4,4.8,48.8,4.2,3.3,12,3.7,17.2,3.9ZM38.3,155.2l-7,3.5c3.3.4,5.8-.3,7-3.5ZM36.3,159.7c-4.4.5-8.5.2-12.8,1.5s-.9-.3-.7,1c3.7.4,14,3.8,13.5-2.5ZM101.8,180.2c-5.2,1.4-4.4,5.7-5,10l3.4-5.8,1.6-4.2ZM197.8,190.7c-10.4,2.9-22.3,8.3-33.2,8.5s-3.5-.6-5.4-.7-1.1-.3-1.4.7c5.2.8,11.4,1.6,16.6.9,7.5-1.1,15.9-6.4,23.9-6.9l-.5-2.5ZM249.8,341.2c-8.2-40.1-18.7-81.4-35.4-118.8-1.6-3.5-13.1-27.6-15.3-28-9.1.8-17.7,6.5-26.6,7.2-5.3.5-10.4-.8-15.7-.9-5.2,20.6-14.5,40.5-23.4,59.8-11.3,24.5-23.7,49-34.2,73.3s-1.8,4.3-1.8,6.4c1.4,1.4,13.6-5.1,16.7-5s10.1,3.6,13.4,4.6c6.5,2,14.4,4.5,21.1,4.9,12,.7,18.3-8.6,29-12.5,20.8-7.6,32.7-.9,52.2,4.4s13.3,3.4,20.1,4.6ZM14.3,364.2h26.5l31.5-68.3c-1.8-18.7,16.3-31.4,17-49,.2-5.8-7.8-13.9-10.2-19.2-6.9,3.4-14.8,0-22.2,1.1-7.3,33.3-17,66.1-28.5,98.2-4.5,12.5-9.6,24.7-14,37.2ZM81,324.5c-.8-.8-1.3-2.4-2.7-2.3l-2.5,36.5h25.9s2-18.5,2-18.5c-1.8.9-6.6,2.8-7.8.5s5.4-10.2,1-11c-6.4-1.2-10.8-.3-16-5.2ZM202.8,341.7v-7.2c0-.3-.8-3.9-1-4l-5.5-.2,1.2,10,5.3,1.5ZM210.8,370.7c.4-5.1-1-10.1-2.9-14.8s-4-6.7-4.5-8.5,0-2.3-.2-3.3c-.4-1.4-4.2-1.4-5.4-2.3-.2,1.4.7,2.8.5,4.2-.4,2.2-3,2-1.3,6.3s9.5,13.8,12,17,1,1.3,1.7,1.5ZM136.8,343.7l-6.5-1.5-1.5,5.5,6.4.4,1.6-4.4ZM134.3,349.7l-6.5-1c-.4,1.6-1.1,5-2,6.3s-2.7,2-3.8,3.2c-3.9,4.4-6.7,9.7-7.7,15.5,3.3-2.2,6.7-4.5,9.7-7s7.9-6.5,8.3-8.8-.4-2.3-.2-3.3,2.7-4.4,2.2-4.9ZM94.2,360.3c-1.9,0-12.2-.6-12.8.5.2,2.5-.2,6.2,1.7,7.9,3.5,3.2,7,5.1,10.5,9,3.3,3.7,5.6,8.4,8.6,11.9s.6,1.3,1.4,1.1c6.7-10.4-5.1-21.3-9.3-30.4ZM38.8,365.7h-22.2c-7.6,7.2-16,16.7-14.5,28,11.4-8.3,22.9-16.7,35.8-22.7l1-5.3Z"/>
      <path d="M320.5,70.2c8,.7,13.9,5.3,21.7,6.8,12.3,2.5,26.8,4,39.4,5.6s22.9,2.2,34.2,4.1c-.7-12.2,7.4-22.2,10.7-33s-1-10.9-1.7-18.8C423.1,14.9,438.1-.2,458,.2c17,.4,27.6,21.1,27,36.3s-2.7,10.6-3.2,15.5-.1,12.8,0,17.9c.3,8.7,6.9,13.8,10.4,21.1,8.3,17.4,11.3,35.6,15.1,54.4l-2.4,23.4c1.5,1.8,9.8,4.5,9.9,6.5l-6,28.8-8.7-3.5c-.8,1.6-1.7,2.1-3.3,2.8,5.3,8.2,7.4,18.5,8.9,28.1s1.3,13.5,2.7,20.3c4.3,20.5,17.2,39.1,31.8,53.7.4,1-2.3,1.1-2.8,1.2-9.4,1-18.9,1.3-27.7,5.1,3.3,4.9,6.8,9.7,9.9,14.8,3.4,5.6,6.1,13.2,11.1,17.4s4.9,2.6,6.4,5.1c0,.5-5,7.8-5.6,8.2-1.2.8-2.5.2-3.2.6l-10.6,15.7-1.5-.5v-9c0-.9,1.6-6.3,2-7.5.7-2.2,4.3-8.6,3.8-10.2l-20.8-26.3c-1-.5-7.9,2.7-9.9,3.1-6.9,1.5-14.6,1.3-21.6,2.7l3.6,29.6c2.6,4.8,4.4,9.8,6.2,14.9l-3.8,6.9c-3.4-1.4-4.9,2.7-7,4.8s-6.4,6.5-7.7,7.3c-5.1,3-2.6-4.7-1.9-6.9,2-6.7,5.3-13,8.2-19.4l-8.1-35.7-35,.3-.4-.6c-.2-19.6,0-39.3,0-59-.1-21.1-2.1-44.1,7.1-63.9,1.6-3.4,4-6.5,5.5-10,7.3-16.5,2.6-41-3.1-57.6-2.3-6.7-2.5-5.9-6.7-10.8s-8.1-17.2-9.3-25.9c-13.7-2.3-27.2-5.8-40.9-8.4s-25.2-4-37.8-6.2-5.5-.6-7.4-1.1-2.2-1.8-3.7-2.3c-4-1.2-12.5-.8-15.8-2.7s-.7-2.4,0-2.4h7.2l-10.5-4.2-.5-1,.8-1.3c3.9.2,8.1-.3,12,0ZM435.8,28.5c-.3,2.2.2,5,0,7.2,4.5-3.4,8.3-3.2,12,1.2-2.2,2.4-3.5-2.5-6-2.2,3.4,5.7-3.7,7-2.5,1l-3.4,1.1c.2,8.7,3,18.4,7,26.1s10.1,16,18.1,9.8,9.5-15.6,8.7-25.2c-.1-1.4-1.6-2.7-.5-4.8l2,.3c2.2-3.2-1.5-3.4-2.1-4.1s-.2-2.4-.9-3.5c-3.4-5.4-25.3-7-30.3-12.7-.4,0-2.2,5.1-2.3,5.7ZM319.3,72.2l-.7,1.4-8.3-1.9,10.7,4.1,2.3,1.7c0,1.5-5.6.3-6.7.2s-3.1-.4-3.3.5l17.3,3c0-1.9,1.5-5.4.2-6.8s-10.4-2.9-13-2.7l1.5.5ZM337.8,77.2l-5-1.5-1,7c3.9.9,4.5-2.8,6-5.5ZM459.3,75.7c-2.2.6-3.8.6-6,0,0,3.3-.9,6.7-2.9,9.3,2.4,4.8,8.1,3,11.7.7.4-.7-1.6-3.7-2-5s-.9-3.3-.8-5ZM338.2,83.1c.5-1.2,1.1-2.5,1.5-3.8s1-1.7-.2-1.6-5.7,7.1-1.3,5.4ZM427.7,89.9l-85.7-11.5-2.7,5.3,37.3,6.5,1.2-.7c1.1-.3,1.8-3.6,2.7-3.3,2.2.8-2,3.8-1.2,4.5l44.3,9.5c3.3,18.9,12.1,35.7,16,54.5,1.7,8,2,17.5,1.8,25.8s-3.5,13.8-6.5,19.5l24.5,6.3c-4.9-18.2-9.7-36.9-11-55.8-.2-3.4.6-8.4-.1-11.4s-5-8.1-6.2-10.3c-6.5-12.3-11.2-25.3-14.4-38.9ZM454.8,89.2c-2.6.9-4.7-2.6-5.9-2.9s-4.7.5-4.9.9l1.8,14.5,9-12.5ZM463.8,103.2c.4-2.4,2.9-4.9,3-7.3s-1.3-8-1.6-8.9-.5-.9-1.1-.9-5.1,2.8-6.2,3.3l2.4,7.1,3.6,6.7ZM448.3,136.2c.4-12.4,1.5-24.7,4.5-36.7-3.8-4.7-5.7,5.5-7.7,5.2l-2.8-17.5-12.5,2.2c-1.1.7.8,6.4,1.2,7.9,2.9,10.9,7.4,21.4,12.6,31.4l4.8,7.5ZM456.8,90.2l-3,2.8-3,4.2c1.5.3,7,1.2,7.8,0l-1.8-7ZM450.3,135.7c5-10.9,12.7-20.4,19.9-29.9l-2.7-7.6-3.5,7-1.3-.3-3-6-5.5.3c-1.5,6-2.8,12-3.5,18.2-.6,5-1.2,11.6-1,16.5s-.4,1.9.5,1.7ZM501.8,143.7c.2,2-2.6,1.5-3.5,2.2s0,16.2-.5,19l-3,21.5c.1,1.4,4,2.6,5.3,3.2.5-.3.6-.7.7-1.3,2.2-11.2,4.6-28.2,5-39.5.3-8.5-4.1-25.3-6.3-34.2-1.2-5-2.6-9.9-4.7-14.6l-3,14.3c.9,10.3,5.2,19.9,5.5,30.2l4.5-1ZM471.8,107.2c-.9-.2-1.2.5-1.7,1-7.8,8-14.6,21.1-20.2,30.8-1,22.9,5.3,45.2,10.5,67.2l28.5-9.3c-3.7-3.8-8.3-7-13.5-8.3-.3,6.7-7.1,10.3-11.8,14-1.1,0-3.3-11-4.2-12.8.2-1.2,4-.6,5.2-.7,2.4-.3,5.3-1.1,7.3-2.7.2-.5-9.2-4.1-10-5s-.5-1.1-.5-1.9l8.5-29.8,5.5,2.5c.9-9.3,3.2-18.3,6.9-26.9.2-2.1-2.9-4.1-3.8-6l-6.6-12.2ZM496.3,164.2v-20.2s-6-27.3-6-27.3c-1.2,3.5-2.6,9.2-7.1,9.3-2.5,7.4-5.8,15.7-6.4,23.5-.1,1.5-.5,3.5.9,4.4l18.5,10.3ZM495.7,165.3l-24.7-13.6c-.5,0-1.7,4.9-1.6,5.3s2.5,1.6,2.8,4.1-1.5,7.1-2.3,8.5c-1.8,3-4.6,2.7-5.1,3.5s-2.3,7-1.9,7.6l26.4,12.5c.8-2.2,2.1-3.3,4.1-4.3l2.4-23.6ZM465.3,171.2c2.1,2.2,7.7-11,3.7-12.5l-3.7,12.5ZM507.8,202.7l5.5-26.8c-.2-1.5-6.8-4-8.3-5.2l-4.3,27.7c.3,1.8,5.5,3.1,7,4.3ZM474.3,187.7c-4.3,1.1-8.3,3.6-13,3l2.5,10c4.6-3.2,10.2-6.8,10.5-13ZM500.3,191.2l-5.5-2.5c-1.1,1.4,3.9,3.4,4.8,3.5s.8-.2.7-1ZM499.7,193.8c-3.6-1.1-7.2-5.4-9,0s-1,3.2.6,3.9c0-.5,1.6-5.1,2.5-4l-1.3,7c.7,1,2.1.2,3,.2s.7,1.1,2,.3c2.2-1.4,2.4-5.1,2.2-7.5ZM491.3,199.2c-.3-.4-2.3-.4-3-.3-6.2.8-14,5.5-20.5,6.3,4.7,24.6,5.7,50.1,3.5,75l-1-.7c.5-5.2.4-10.3.5-15.5.5-16.3,0-33.7-2.6-49.9-.4-2.7-.8-5.3-2-7.8-4.2,1.1-7.1,2-11.4.5,0,6.4-2.1,12.8-2.5,19.2-.4,7.7.4,15.8,0,23.5l1.4,16.9-1.4.8c-1.4-20.3-3.4-41.2,2-61-2.6.4-7-3-8.6-.4s-3.2,8.6-4,11.5c-3.4,11.7-5.1,24.4-5.4,36.6l-1.5,1.3c.5-17.3,3.4-34.7,10-50.7-1.3-1-10.9-3.3-11.5-2.5-9.7,20.4-8.6,43.8-8.5,66,0,1.3.5,2.5.5,4,0,18.1-.1,36.2,0,54.3,9.8-.4,20,.6,29.7,0,9.9-.6,25.2-2.3,34.9-4.1,3.9-.7,11.2-3.8,14.1-6.4s2.9-4.2,6.7-5.8c7.9-3.4,18.6-3.6,27.1-4.7-14.1-15.2-26.4-32.8-30.8-53.5-3-14.4-2.3-32.9-10.2-45.8-2.2-3.5-1.4-2.3-4.7-3.3s-.7-3.2-.9-3.4ZM519.8,356.7c4.9-1.9,8.8-5.9,10.9-10.7-6.3-5.9-9.2-14.1-13.7-21.3s-5.4-8.2-8.5-12c-1.6,2.2-3.5,4.6-6.2,5.5v.6s21.9,27.7,21.9,27.7l-4.4,10.2ZM464.3,372.7c5.3-.2,8.6-5.4,11.4-9.3.2-1.4-3.6-5.9-3.9-7.9s.1-2.7,0-4c-1.1-8.6-2.4-17.2-3.5-25.8l-8,1,8.5,36.8-4.5,9.2ZM535.1,348.4c-.3-.4-2.4-1.6-2.9-1.4-2,2.5-3.5,5.4-6,7.5s-6.3,3.1-7,4c-1.1,1.3-2.8,11.6-1.2,12.3l9.5-14c.8-.8,2-.3,2.9-.6s4.9-5.8,5.1-6.4,0-1-.4-1.4ZM459.3,388.2l6-4.7c2.4-1.8,4.8-6.4,7.2-7.8,1.2-.7,2,.2,2.5-.4s2.7-4.7,2.8-5.3-1.3-4.5-1.7-4.7c-2,3.1-5.2,6.9-8.6,8.4-1.2.5-3.2.5-3.9,1.1s-4.8,12.8-4.2,13.5Z"/>
      <path d="M299.8,59.7c-1.3.3-1.2-.9-1.4-1.8-.7-3.6-1.5-9.1-1.7-12.8s-.6-1.9.4-1.9,1,2.7,1.1,3.4c.8,4.2,1.4,8.8,1.7,13.1Z"/>
      <path d="M307.8,60.2c-.3-1,.3-1.4.7-2,2.1-3.5,5.7-7.1,8-10.5,1,.8.9.8.2,1.7-1.6,2.6-5.3,7.5-7.3,9.7s-.7,1.3-1.7,1Z"/>
      <path d="M289.8,63.2c-.9.2-1.2-.5-1.7-1-1.7-1.4-6.3-5.8-7.5-7.5s-.9-1-.7-2c.9-.2,1.2.5,1.7,1,1.6,1.3,3.9,3.7,5.3,5.2s3.4,3.9,3,4.3Z"/>
      <path d="M290.8,104.2c-.7-.8,5.2-10.9,6.2-12.5,1.1.8.7.9.4,1.8-.5,1.4-4.1,8.1-5,9.5s-.6,1.4-1.6,1.2Z"/>
      <path d="M310.3,105.2c-1.1.2-1.2-.5-1.5-1.2s-3.9-10.8-3.5-11.3c1.1-.2,1.2.5,1.5,1.2s3.9,10.8,3.5,11.3Z"/>
      <path d="M312.5,88.2c.5,0,7.7,5.1,8.6,5.9s1.3.5,1.1,1.4-.7.6-1.3.3c-1.1-.5-8.3-5.6-8.7-6.3s-.3-1.2.3-1.2Z"/>
      <path d="M164.3,216.7c1.1-.2,1.2.5,1.5,1.3,1.7,5.1-.4,12.1-1.8,17.1-5.1,18.1-13.1,36.8-22.4,53.1l-.4-1.8c8.6-15.8,16.4-33.4,21.2-50.8s3.2-12.2,1.9-18.9Z"/>
      <path d="M227.8,301.7c1.5,7,5.1,13.5,6.9,20.4s1.8,5.2.4,6.6l-8.6-25.8v-1.1c0,0,1.4,0,1.4,0Z"/>
      <path d="M199.7,207.8l5.6,11.9-1.6-.6c-.8-3.2-4.4-7.4-5.3-10.2s0-1.3,1.3-1.1Z"/>
      <path d="M134.3,159.7c1-.2,1.2.5,1.6,1.1,4.4,7.5,8,21,7.8,29.7-.4,18.4-29,47-39.9,62.5-16.6,23.8-17.5,34.1-11.6,62.4,0,.3.9,1.8-.2,1.7s-2.3-6.3-2.5-7.5c-5.9-28.4,1.7-42,18.1-64,9.7-13,30.4-34.3,34-49.5,3-12.7-2.9-25-7.3-36.5Z"/>
      <path d="M63.8,132.2c1.4-.3,4.2-.2,5.3-1s5-8,5.5-8.1c2.5,0,4.6,6.5,6.2,7.3s4-1.1,5.5.5l-21.8,2.6-.7-1.3ZM75.8,125.2c-1.2-.8-4.2,5.2-5,6l8.5-.5-3.5-5.5Z"/>
      <path d="M66.3,186.8l24.7.4,1.7.8-15.2,21.3c-1.7,1.6-5.2,3-7.5,2.9s-6-1-6.3-2.7l2.5-22.7ZM90.3,188.2h-23l-2,21.2c3.7,1.9,8.2,1.8,11.3-1.2,3.1-3,8.5-11.4,11.1-15.4s3.1-4.2,2.6-4.7Z"/>
      <path d="M158.8,73.2c0-5.7-1.2-11.6-4.1-16.6s-3.8-3.7-2.2-4.8c3.9,4,6.4,9.8,7.2,15.3s1.2,6.5-.9,6.2Z"/>
      <path d="M148.8,53.2c0,2-2.1,1.5-3.5,1.5,2.6,3.6-1.2,6.6-1.8,1l-4.2,3c1.3-4.1,5.3-6.2,9.5-5.5Z"/>
      <path d="M164.8,47.7l-4.5.5c3,4.1-1.3,7-1.5,1l-3.5,2.5c-.2-2.1,2.3-3.5,4-4.2s5.7-2.2,5.5.2Z"/>
      <path d="M165.3,76.7c.9,3.8-10,5.8-10,3.7,1.4-1.4,3.5-.5,5.5-1s2.7-2.4,4.5-2.8Z"/>
      <path d="M102.8,50.7l-6-2c-.2.8.7.4,1,.8.9,1.5.3,3-1.5,3.2l-1-3.5c-.1-.1-4.3,1.4-3.5-.2,3.3-2.5,9.3-2.6,11,1.7Z"/>
      <path d="M87.8,48.2c2.3,6.4,2.3,14.4-.7,20.5-1.6,0,.5-5.1.6-5.9.3-1.8.7-4.1.7-5.9,0-2.8-1.4-5.7-1.5-8s0-.8,1-.7Z"/>
      <path d="M84.4,49.7c0,0,0-.7-.7-1-3.6-1.4-6.9.2-10.3,1.1v-1.5c3.2-.7,5.2-1.8,8.7-1.5s3.9,3.6,2.4,2.9Z"/>
      <path d="M88.3,72.7c.1,1.8-3.5,2.1-4.7,2s-5.9-2.5-4.8-3.5c1.9-.1,3,1.8,4.8,2s3.1-.7,4.7-.5Z"/>
      <path d="M80.8,48.7v3.2c-1.1,1.2-3.2-1.6-3-2.5.7-1,1.9-.8,3-.8Z"/>
      <path d="M493.3,251.2c-1.3.5-1.4-2.1-1.4-2.8-1.4-14.5-2.3-24-8.5-37.5l-4.1-7.7c1.7-1.5,4.7,5.9,5.2,7,5.8,12.6,8.9,27,8.8,41Z"/>
      <path d="M441.3,187.7c2.2.4,4,2,6.4,2.4s4.3-.2,4.9.6c-1.2,3.7,2,8.3,2.2,11.3s0,1.2-.7,1.7c-7-3.2-13.3-7.3-12.8-16ZM450.8,191.8c-2.6-.2-5.5-.5-7.7-2-.4,5.6,4.7,10.1,9.8,11.5l-2-9.5Z"/>
      <path d="M473.2,122.4c1.3,1.3.6,5.5-.9,6.6s-6.8,1.4-7.8-.2.8-6.3,2-8c1.5,1.4,5.3.4,6.6,1.6ZM472.2,123.8l-5-.3-1.5,4.2c3.8,1.4,7.1,1,6.4-3.9Z"/>
      <path d="M462.7,35.8c2.3,3.5-4.2-.8-4.4-.6,2.4,5.6-4.4,5.2-2.5.5-.9-.8-4.1,4.5-4.5,2.2s4.1-4,5.4-4.2,5.4,1.1,6,2Z"/>
      <path d="M451.8,45.2c.5,3.7-1.2,7.4,0,11,1.2-.2,2.5-1.2,3.5.2-2,2.2-5.2,1.5-5.5-1.5s.4-7.3.6-8.3.2-1.7,1.4-1.4Z"/>
      <path d="M450.1,63.9c3.6,2.8,4.6,2,8.9.8l.3,1.3c-3.4,2.2-10.4,2.3-10.5-2.8,0-.1,1.1.5,1.3.7Z"/>
      <path d="M481.3,160.7c-1.9,6-3.6,13.3-6.3,19s0,1.2-1.2,1c-.1-.9.1-1.6.3-2.4,1-3.9,3.9-12.9,5.6-16.4s.5-1.4,1.5-1.2Z"/>
      <path d="M490.8,182.7c-.8,0-1.6.5-1.5-.7.3-3.1,2.3-9,3.3-12.3s0-1.9,1-1.5.4,1.2.3,1.8c-.7,4.3-2.7,8.3-3.1,12.7Z"/>
      <path d="M477.8,158.7c.5.5-4.1,11.9-4.7,13.5-1-.7-.7-1-.5-2,.3-1.8,2.8-9.4,3.7-10.8s1.2-1,1.6-.6Z"/>
      <path d="M483.3,185.7c.2-1.9,3.3-13.9,4.2-14s.5,1.4.4,1.9c-.5,2.6-2,8.1-3,10.5s-.5,1.8-1.7,1.6Z"/>
      <path d="M483.8,168.7c.4.5-3.2,11.7-3.8,13s0,1.2-1.2,1c.9-3.6,1.9-9.7,3.5-12.8s.5-1.4,1.5-1.2Z"/>
      <path d="M470.3,178.7c-.1-1,0-1.9.3-2.9s.5-2.4,1.4-2.1c1.4.5-.6,4.8-1.7,5Z"/>
      <path d="M489.8,184.2c.2.2-.4,5.5-2,5-.5-.6.9-6.3,2-5Z"/>
      <path d="M504.8,181.7l1.3.7-3.1,14.3c-.9-.6-.8-1.2-.7-2.2.3-4,2.3-8.7,2.5-12.8Z"/>
      <rect x="501.4" y="183.7" width="14" height="1.6" transform="translate(232 649.4) rotate(-79.2)"/>
      <rect x="503.3" y="194.6" width="5.9" height="1.5" transform="translate(223.5 658.5) rotate(-79.7)"/>
    </g>
  </g>
</svg>